# xmcd CD database file
#
# Track frame offsets:
#	150
#	11414
#	27078
#	43605
#	57017
#	68405
#	79210
#	93094
#	106164
#	122162
#	141828
#	164966
#	200068
#	203423
#	212656
#	224505
#	239169
#	252766
#	268250
#	280414
#	296271
#	309030
#	321673
#	331983
#	343127
#	358224
#
# Disc length: 4821 seconds
#
# Revision: 0
# Processed by: cddbd v1.5.2PL0 Copyright (c) Steve Scherf et al.
# Submitted via: CDex 1.51
#
DISCID=9412d31a
DTITLE=Nat King Cole - L-o-v-e
DYEAR=2006
DGENRE=Jazz
TTITLE0=Ballerina
TTITLE1=Funny (Not Much)
TTITLE2=The Continental
TTITLE3=I Wish You Love
TTITLE4=You Leave Me Breathless
TTITLE5=Thou Swell
TTITLE6=My Kinda Love
TTITLE7=The Surrey With The Fringe On Top
TTITLE8=Where Or When (Instrumental)
TTITLE9=Miss Otis Regrets (She's Unable To Lunch Today)
TTITLE10=Joe Turner's Blues
TTITLE11=Mr. Cole Won't Rock'n'Roll
TTITLE12=Introduction - Wild Is Love
TTITLE13=Wild Is Love
TTITLE14=Hundreds And Thousands Of Girls
TTITLE15=It's A Beautiful Evening
TTITLE16=Tell Her In The Morning
TTITLE17=Are You Disenchanted?
TTITLE18=Pick-Up
TTITLE19=Beggar For The Blues
TTITLE20=World Of No Return
TTITLE21=In Love Again
TTITLE22=Stay With It
TTITLE23=Wouldn't You Know
TTITLE24=He Who Hesitates
TTITLE25=Wild Is Love (Reprise)
EXTD=YEAR: 2006
EXTT0=
EXTT1=
EXTT2=
EXTT3=
EXTT4=
EXTT5=
EXTT6=
EXTT7=
EXTT8=
EXTT9=
EXTT10=
EXTT11=
EXTT12=
EXTT13=
EXTT14=
EXTT15=
EXTT16=
EXTT17=
EXTT18=
EXTT19=
EXTT20=
EXTT21=
EXTT22=
EXTT23=
EXTT24=
EXTT25=
PLAYORDER=
